<svg xmlns="http://www.w3.org/2000/svg" version="1.1" xmlns:xlink="http://www.w3.org/1999/xlink" xmlns:svgjs="http://svgjs.dev/svgjs" width="1000" height="1000" viewBox="0 0 1000 1000"><rect width="1000" height="1000" fill="#ffffff"></rect><g transform="matrix(0.7,0,0,0.7,149.57575757575756,282.1265587044535)"><svg viewBox="0 0 396 247" data-background-color="#ffffff" preserveAspectRatio="xMidYMid meet" height="623" width="1000" xmlns="http://www.w3.org/2000/svg" xmlns:xlink="http://www.w3.org/1999/xlink"><g id="tight-bounds" transform="matrix(1,0,0,1,0.2400000000000091,-0.09999999999999432)"><svg viewBox="0 0 395.52 247.2" height="247.2" width="395.52"><g><svg></svg></g><g><svg viewBox="0 0 395.52 247.2" height="247.2" width="395.52"><g transform="matrix(1,0,0,1,75.54432,89.47854697494552)"><svg viewBox="0 0 244.43135999999998 68.24290605010894" height="68.24290605010894" width="244.43135999999998"><g><svg viewBox="0 0 244.43135999999998 68.24290605010894" height="68.24290605010894" width="244.43135999999998"><g><svg viewBox="0 0 244.43135999999998 68.24290605010894" height="68.24290605010894" width="244.43135999999998"><g><svg viewBox="0 0 244.43135999999998 68.24290605010894" height="68.24290605010894" width="244.43135999999998"><g id="textblocktransform"><svg viewBox="0 0 244.43135999999998 68.24290605010894" height="68.24290605010894" width="244.43135999999998" id="textblock"><g><svg viewBox="0 0 244.43135999999998 47.71239560030983" height="47.71239560030983" width="244.43135999999998"><g transform="matrix(1,0,0,1,0,0)"><svg width="244.43135999999998" viewBox="1 -37.5 200.67999267578125 37.79999923706055" height="47.71239560030983" data-palette-color="#0080ff"><path d="M29.05-37.4L33.6-37.4 33.6 0 26.7 0 15.4-24.9 15.4 0 10.6 0 10.6-33.9Q8.3-32.8 7.05-30.8 5.8-28.8 5.8-25.8L5.8-25.8Q5.8-24.2 6-23.18 6.2-22.15 6.48-21.5 6.75-20.85 7.05-20.43 7.35-20 7.6-19.65L7.6-19.65Q4.3-19.65 2.65-21.18 1-22.7 1-26.3L1-26.3Q1-28.35 1.8-30.35 2.6-32.35 4.17-33.95 5.75-35.55 8.15-36.52 10.55-37.5 13.75-37.5L13.75-37.5Q14.35-37.5 15.3-37.4 16.25-37.3 17.4-36.8L17.4-36.8 29.05-10.3 29.05-37.4ZM49.65-3.9L49.65-3.9Q51.15-3.9 52.3-4.3 53.45-4.7 54.35-5.38 55.25-6.05 56-6.98 56.75-7.9 57.45-8.95L57.45-8.95 59.15-8.95Q58.45-7.2 57.47-5.55 56.5-3.9 55.07-2.6 53.65-1.3 51.75-0.5 49.85 0.3 47.3 0.3L47.3 0.3Q45.15 0.3 43.35-0.35 41.55-1 40.22-2.38 38.9-3.75 38.17-5.93 37.45-8.1 37.45-11.15L37.45-11.15Q37.45-13.3 37.92-15.78 38.4-18.25 39.6-20.35 40.8-22.45 42.85-23.85 44.9-25.25 48.05-25.25L48.05-25.25Q50.45-25.25 51.75-24.5 53.05-23.75 53.67-22.75 54.3-21.75 54.42-20.8 54.55-19.85 54.55-19.45L54.55-19.45Q54.55-17.2 53.72-15.5 52.9-13.8 51.52-12.63 50.15-11.45 48.37-10.83 46.6-10.2 44.75-10.1L44.75-10.1Q44.8-6.75 45.87-5.33 46.95-3.9 49.65-3.9ZM50.7-19.4L50.7-19.4Q50.7-21.15 50.1-21.88 49.5-22.6 48.8-22.6L48.8-22.6Q47.95-22.6 47.25-21.78 46.55-20.95 46.02-19.58 45.5-18.2 45.17-16.35 44.85-14.5 44.75-12.5L44.75-12.5Q46-12.6 47.1-13.18 48.2-13.75 49-14.68 49.8-15.6 50.25-16.8 50.7-18 50.7-19.4ZM74.8-12.15L75.95-8.9Q76.8-6.45 77.72-5.5 78.65-4.55 79.84-4.55L79.84-4.55Q81.34-4.55 82.32-5.73 83.3-6.9 83.5-8.95L83.5-8.95 85.59-8.95Q85.2-5.95 84.22-4.15 83.25-2.35 82.07-1.35 80.9-0.35 79.7-0.03 78.5 0.3 77.65 0.3L77.65 0.3Q75.15 0.3 73.2-1.75 71.25-3.8 69.5-8.4L69.5-8.4 64.34 0 60.75 0 68.4-11.4 66.4-17Q65.5-19.5 64.9-20.33 64.3-21.15 63.65-21.15L63.65-21.15Q62.9-21.15 62.17-20.4 61.45-19.65 60.85-18.15 60.25-16.65 59.87-14.35 59.5-12.05 59.5-8.95L59.5-8.95 57.4-8.95Q57.4-11.75 57.77-14.65 58.15-17.55 59.07-19.9 60-22.25 61.6-23.75 63.2-25.25 65.7-25.25L65.7-25.25Q67.2-25.25 68.3-24.73 69.4-24.2 70.17-23.33 70.95-22.45 71.5-21.4 72.05-20.35 72.4-19.3L72.4-19.3 73.7-15.4Q75.2-17.5 76.02-19.1 76.84-20.7 76.84-22L76.84-22Q76.84-22.45 76.8-22.7L76.8-22.7Q76.45-22.65 76.4-22.63 76.34-22.6 76.05-22.6L76.05-22.6Q74.45-22.6 73.7-23.5 72.95-24.4 72.95-25.45L72.95-25.45Q72.95-26.75 73.9-27.48 74.84-28.2 76.05-28.2L76.05-28.2Q77.45-28.2 78.65-27.13 79.84-26.05 79.84-23.65L79.84-23.65Q79.84-21.3 78.42-18.25 77-15.2 74.8-12.15L74.8-12.15ZM110.29-31L110.29-31Q108.69-31 106.69-31.33 104.69-31.65 102.54-32.1L102.54-32.1 102.54 0 95.29 0 95.29-33.1 94.79-33.1Q92.54-33.1 91.04-32.58 89.54-32.05 88.64-31.08 87.74-30.1 87.39-28.65 87.04-27.2 87.04-25.4L87.04-25.4Q87.04-23.75 87.27-22.75 87.49-21.75 87.79-21.13 88.09-20.5 88.39-20.18 88.69-19.85 88.89-19.6L88.89-19.6Q85.74-19.6 83.97-21.08 82.19-22.55 82.19-26.3L82.19-26.3Q82.19-28.65 82.99-30.7 83.79-32.75 85.57-34.25 87.34-35.75 90.17-36.6 92.99-37.45 97.09-37.45L97.09-37.45Q99.09-37.45 100.72-37.27 102.34-37.1 103.77-36.88 105.19-36.65 106.59-36.48 107.99-36.3 109.54-36.3L109.54-36.3Q111.64-36.3 113.07-36.63 114.49-36.95 115.44-37.35L115.44-37.35Q115.59-36.35 115.59-35.6L115.59-35.6Q115.59-33.35 114.37-32.18 113.14-31 110.29-31ZM109.39-25L116.59-25 116.59-21.9Q117.69-23.2 119.04-24.23 120.39-25.25 121.99-25.25L121.99-25.25Q122.94-25.25 123.72-24.85 124.49-24.45 125.07-23.8 125.64-23.15 125.97-22.38 126.29-21.6 126.29-20.8L126.29-20.8Q126.29-19.7 125.62-18.78 124.94-17.85 123.39-17.85L123.39-17.85Q122.24-17.85 121.79-18.35 121.34-18.85 121.09-19.43 120.84-20 120.57-20.5 120.29-21 119.59-21L119.59-21Q118.84-21 118.12-20.43 117.39-19.85 116.59-19L116.59-19 116.59 0 109.39 0 109.39-25ZM141.59-25L148.79-25 148.79-8Q148.79-5.9 149.36-5.23 149.94-4.55 151.39-4.55L151.39-4.55Q152.84-4.55 153.81-5.8 154.79-7.05 154.94-8.95L154.94-8.95 157.04-8.95Q156.64-5.9 155.64-4.08 154.64-2.25 153.39-1.28 152.14-0.3 150.84 0 149.54 0.3 148.54 0.3L148.54 0.3Q145.89 0.3 144.51-0.93 143.14-2.15 142.59-4.3L142.59-4.3Q142.19-3.45 141.64-2.63 141.09-1.8 140.31-1.15 139.54-0.5 138.51-0.1 137.49 0.3 136.14 0.3L136.14 0.3Q134.54 0.3 132.99-0.3 131.44-0.9 130.16-2.25 128.89-3.6 128.11-5.83 127.34-8.05 127.34-11.3L127.34-11.3Q127.34-13.6 127.86-16.05 128.39-18.5 129.51-20.55 130.64-22.6 132.46-23.93 134.29-25.25 136.89-25.25L136.89-25.25Q137.49-25.25 138.19-25.18 138.89-25.1 139.54-24.83 140.19-24.55 140.74-24.03 141.29-23.5 141.59-22.6L141.59-22.6 141.59-25ZM141.59-8.95L141.59-20.2Q141.54-20.4 141.39-20.73 141.24-21.05 140.94-21.38 140.64-21.7 140.19-21.93 139.74-22.15 139.14-22.15L139.14-22.15Q137.94-22.15 137.06-21.13 136.19-20.1 135.66-18.57 135.14-17.05 134.89-15.23 134.64-13.4 134.64-11.75L134.64-11.75Q134.64-9.1 135.04-7.63 135.44-6.15 136.01-5.48 136.59-4.8 137.24-4.67 137.89-4.55 138.34-4.55L138.34-4.55Q138.89-4.55 139.46-4.83 140.04-5.1 140.51-5.65 140.99-6.2 141.29-7.03 141.59-7.85 141.59-8.95L141.59-8.95ZM167.89-34L175.09-35 175.09-8Q175.09-5.9 175.66-5.23 176.24-4.55 177.69-4.55L177.69-4.55Q179.14-4.55 180.11-5.8 181.09-7.05 181.24-8.95L181.24-8.95 183.34-8.95Q182.94-5.9 181.94-4.08 180.94-2.25 179.69-1.28 178.44-0.3 177.14 0 175.84 0.3 174.84 0.3L174.84 0.3Q172.19 0.3 170.81-0.93 169.44-2.15 168.89-4.3L168.89-4.3Q168.49-3.45 167.94-2.63 167.39-1.8 166.61-1.15 165.84-0.5 164.81-0.1 163.79 0.3 162.44 0.3L162.44 0.3Q160.84 0.3 159.29-0.3 157.74-0.9 156.46-2.25 155.19-3.6 154.41-5.83 153.64-8.05 153.64-11.3L153.64-11.3Q153.64-13.6 154.16-16.05 154.69-18.5 155.81-20.55 156.94-22.6 158.76-23.93 160.59-25.25 163.19-25.25L163.19-25.25Q163.79-25.25 164.49-25.18 165.19-25.1 165.84-24.83 166.49-24.55 167.04-24.03 167.59-23.5 167.89-22.6L167.89-22.6 167.89-34ZM167.89-8.95L167.89-20.2Q167.84-20.4 167.69-20.73 167.54-21.05 167.24-21.38 166.94-21.7 166.49-21.93 166.04-22.15 165.44-22.15L165.44-22.15Q164.24-22.15 163.36-21.13 162.49-20.1 161.96-18.57 161.44-17.05 161.19-15.23 160.94-13.4 160.94-11.75L160.94-11.75Q160.94-9.1 161.34-7.63 161.74-6.15 162.31-5.48 162.89-4.8 163.54-4.67 164.19-4.55 164.64-4.55L164.64-4.55Q165.19-4.55 165.76-4.83 166.34-5.1 166.81-5.65 167.29-6.2 167.59-7.03 167.89-7.85 167.89-8.95L167.89-8.95ZM192.18-3.9L192.18-3.9Q193.68-3.9 194.83-4.3 195.98-4.7 196.88-5.38 197.78-6.05 198.53-6.98 199.28-7.9 199.98-8.95L199.98-8.95 201.68-8.95Q200.98-7.2 200.01-5.55 199.03-3.9 197.61-2.6 196.18-1.3 194.28-0.5 192.38 0.3 189.83 0.3L189.83 0.3Q187.68 0.3 185.88-0.35 184.08-1 182.76-2.38 181.43-3.75 180.71-5.93 179.98-8.1 179.98-11.15L179.98-11.15Q179.98-13.3 180.46-15.78 180.93-18.25 182.13-20.35 183.33-22.45 185.38-23.85 187.43-25.25 190.58-25.25L190.58-25.25Q192.98-25.25 194.28-24.5 195.58-23.75 196.21-22.75 196.83-21.75 196.96-20.8 197.08-19.85 197.08-19.45L197.08-19.45Q197.08-17.2 196.26-15.5 195.43-13.8 194.06-12.63 192.68-11.45 190.91-10.83 189.13-10.2 187.28-10.1L187.28-10.1Q187.33-6.75 188.41-5.33 189.48-3.9 192.18-3.9ZM193.23-19.4L193.23-19.4Q193.23-21.15 192.63-21.88 192.03-22.6 191.33-22.6L191.33-22.6Q190.48-22.6 189.78-21.78 189.08-20.95 188.56-19.58 188.03-18.2 187.71-16.35 187.38-14.5 187.28-12.5L187.28-12.5Q188.53-12.6 189.63-13.18 190.73-13.75 191.53-14.68 192.33-15.6 192.78-16.8 193.23-18 193.23-19.4Z" opacity="1" transform="matrix(1,0,0,1,0,0)" fill="#0080ff" class="undefined-text-0" data-fill-palette-color="primary" id="text-0"></path></svg></g></svg></g><g transform="matrix(1,0,0,1,0,58.97614710404858)"><svg viewBox="0 0 244.43135999999998 9.266758946060364" height="9.266758946060364" width="244.43135999999998"><g transform="matrix(1,0,0,1,0,0)"><svg width="244.43135999999998" viewBox="1 -42.189998626708984 1159.0799560546875 43.94999694824219" height="9.266758946060364" data-palette-color="#0080ff"><path d="M6.47-40.43L13.84-12.43 13.01-8.96 4.66-40.43 6.47-40.43ZM10.08-40.43L15.67-19.19 14.77-15.82 8.3-40.43 10.08-40.43ZM13.75-40.43L17.5-26.2 16.58-22.78 11.91-40.43 13.75-40.43ZM28.78-16.38L24.46 0 22.63 0 33.33-40.38 33.3-40.43 35.16-40.43 35.16-40.38 39.92-23.97 44.29-40.43 46.12-40.43 35.4 0 33.57 0 28.78-16.38ZM31.49-40.43L20.8 0 18.99 0 29.69-40.43 31.49-40.43ZM27.86-40.43L17.16 0 15.36 0 26.07-40.43 27.86-40.43ZM57.03-40.43L46.34 0 44.51 0 55.2-40.43 57.03-40.43ZM53.37-40.43L42.68 0 40.87 0 51.56-40.43 53.37-40.43ZM49.73-40.43L39.04 0 37.23 0 47.95-40.43 49.73-40.43ZM2.83-40.43L12.62-3.47 22.41-40.43 24.24-40.43 13.53 0 11.69 0 1-40.43 2.83-40.43ZM30.62-23.27L29.71-19.82 34.45-3.32 35.38-6.81 30.62-23.27ZM32.45-30.18L31.52-26.71 36.28-10.25 37.21-13.7 32.45-30.18ZM34.28-37.06L33.33-33.54 38.11-17.09 39.01-20.56 34.28-37.06ZM95.53 0L95.53-35.16 97.29-35.16 97.29 0 95.53 0ZM60.35 0L60.35-35.16 62.11-35.16 62.11 0 60.35 0ZM92.01 0L92.01-35.16 93.77-35.16 93.77 0 92.01 0ZM88.5 0L88.5-35.16 90.26-35.16 90.26 0 88.5 0ZM84.98-22.85L84.98-35.16 86.74-35.16 86.74 0 84.98 0 84.98-14.06 72.65-14.06 72.65 0 70.9 0 70.9-35.16 72.65-35.16 72.65-22.85 84.98-22.85ZM67.38 0L67.38-35.16 69.14-35.16 69.14 0 67.38 0ZM63.86 0L63.86-35.16 65.62-35.16 65.62 0 63.86 0ZM72.65-15.82L84.98-15.82 84.98-17.58 72.65-17.58 72.65-15.82ZM72.65-19.34L84.98-19.34 84.98-21.09 72.65-21.09 72.65-19.34ZM110.66-35.16L110.66 0 108.91 0 108.91-35.16 110.66-35.16ZM107.15-35.16L107.15 0 105.39 0 105.39-35.16 107.15-35.16ZM103.63-35.16L103.63 0 101.87 0 101.87-35.16 103.63-35.16ZM114.18-13.21L114.18-8.79 131-8.79 131-7.03 114.18-7.03 114.18-5.27 131-5.27 131-3.52 114.18-3.52 114.18-1.76 131-1.76 131 0 112.42 0 112.42-35.16 131-35.16 131-33.4 114.18-33.4 114.18-31.64 131-31.64 131-29.88 114.18-29.88 114.18-28.13 131-28.13 131-26.37 114.18-26.37 114.18-22 130.02-22 130.02-20.24 114.18-20.24 114.18-18.48 130.02-18.48 130.02-16.72 114.18-16.72 114.18-14.97 130.02-14.97 130.02-13.21 114.18-13.21ZM148.5-15.04L148.5-16.8 159.1-16.8Q161.2-16.8 162.66-18.12 164.13-19.43 164.13-21.83L164.13-21.83Q164.13-23.58 162.6-24.98 161.08-26.37 159.1-26.37L159.1-26.37 144.01-26.37 144.01 0 142.25 0 142.25-28.13 159.1-28.13Q161.81-28.13 163.85-26.22 165.89-24.32 165.89-21.83L165.89-21.83Q165.89-18.73 163.91-16.88 161.93-15.04 159.1-15.04L159.1-15.04 148.5-15.04ZM148.5-11.52L148.5-13.28 159.1-13.28Q162.61-13.28 165.13-15.67 167.64-18.07 167.64-21.83L167.64-21.83Q167.64-25.02 165.08-27.45 162.52-29.88 159.1-29.88L159.1-29.88 140.5-29.88 140.5 0 138.74 0 138.74-31.64 159.1-31.64Q163.25-31.64 166.33-28.7 169.4-25.76 169.4-21.83L169.4-21.83Q169.4-17.43 166.36-14.48 163.32-11.52 159.1-11.52L159.1-11.52 148.5-11.52ZM148.5-8.01L148.5-9.77 159.1-9.77Q162.35-9.77 165.1-11.33 167.86-12.89 169.51-15.67 171.16-18.46 171.16-21.83L171.16-21.83Q171.16-24.88 169.52-27.55 167.89-30.22 165.09-31.81 162.3-33.4 159.1-33.4L159.1-33.4 136.98-33.4 136.98 0 135.22 0 135.22-35.16 159.1-35.16Q161.86-35.16 164.41-34.07 166.96-32.98 168.82-31.19 170.67-29.39 171.79-26.93 172.92-24.46 172.92-21.83L172.92-21.83Q172.92-17.55 170.96-14.37 169.01-11.18 165.72-9.52L165.72-9.52 169.4 0 167.52 0 164.03-8.81Q163.37-8.59 162.49-8.37L162.49-8.37 165.79 0 163.91 0 160.69-8.08Q159.93-8.01 159.1-8.01L159.1-8.01 162.2 0 160.34 0 157.27-8.01 155.68-8.01 158.64 0 156.78 0 153.8-8.01 148.5-8.01ZM147.53-22.85L147.53 0 145.77 0 145.77-24.61 159.1-24.61Q160.47-24.61 161.42-23.79 162.37-22.97 162.37-21.83L162.37-21.83Q162.37-18.55 159.1-18.55L159.1-18.55 148.5-18.55 148.5-20.31 159.1-20.31Q160.61-20.31 160.61-21.83L160.61-21.83Q160.61-22.24 160.16-22.55 159.71-22.85 159.1-22.85L159.1-22.85 147.53-22.85ZM185.59-35.16L185.59 0 183.83 0 183.83-35.16 185.59-35.16ZM182.07-35.16L182.07 0 180.31 0 180.31-35.16 182.07-35.16ZM178.55-35.16L178.55 0 176.8 0 176.8-35.16 178.55-35.16ZM189.1-13.21L189.1-8.79 205.92-8.79 205.92-7.03 189.1-7.03 189.1-5.27 205.92-5.27 205.92-3.52 189.1-3.52 189.1-1.76 205.92-1.76 205.92 0 187.34 0 187.34-35.16 205.92-35.16 205.92-33.4 189.1-33.4 189.1-31.64 205.92-31.64 205.92-29.88 189.1-29.88 189.1-28.13 205.92-28.13 205.92-26.37 189.1-26.37 189.1-22 204.95-22 204.95-20.24 189.1-20.24 189.1-18.48 204.95-18.48 204.95-16.72 189.1-16.72 189.1-14.97 204.95-14.97 204.95-13.21 189.1-13.21ZM246.08-26.61L246.08-26.61 244.64-25.66Q243.32-27.61 241.21-28.75 239.1-29.88 236.63-29.88L236.63-29.88Q232.63-29.88 229.79-27.05 226.96-24.22 226.96-20.21 226.96-16.21 229.79-13.38 232.63-10.55 236.63-10.55L236.63-10.55Q239.1-10.55 241.21-11.69 243.32-12.84 244.64-14.79L244.64-14.79 246.05-13.77Q244.49-11.47 242-10.13 239.51-8.79 236.63-8.79L236.63-8.79Q234.31-8.79 232.2-9.69 230.09-10.6 228.55-12.13 227.01-13.67 226.11-15.78 225.2-17.9 225.2-20.21 225.2-22.53 226.11-24.65 227.01-26.76 228.55-28.3 230.09-29.83 232.2-30.74 234.31-31.64 236.63-31.64L236.63-31.64Q239.54-31.64 242.03-30.29 244.52-28.93 246.08-26.61ZM248.98-28.61L248.98-28.61 247.52-27.66Q245.71-30.3 242.84-31.85 239.98-33.4 236.63-33.4L236.63-33.4Q233.04-33.4 230.01-31.63 226.99-29.86 225.22-26.83 223.45-23.8 223.45-20.21 223.45-16.63 225.22-13.6 226.99-10.57 230.01-8.8 233.04-7.03 236.63-7.03L236.63-7.03Q239.98-7.03 242.86-8.59 245.74-10.16 247.54-12.82L247.54-12.82 248.98-11.82Q246.93-8.79 243.67-7.03 240.41-5.27 236.63-5.27L236.63-5.27Q232.58-5.27 229.14-7.28 225.69-9.28 223.69-12.72 221.69-16.16 221.69-20.21 221.69-24.27 223.69-27.71 225.69-31.15 229.14-33.15 232.58-35.16 236.63-35.16L236.63-35.16Q240.41-35.16 243.67-33.4 246.93-31.64 248.98-28.61ZM251.91-30.57L251.91-30.57 250.45-29.61Q248.15-32.98 244.5-34.95 240.85-36.91 236.63-36.91L236.63-36.91Q233.24-36.91 230.14-35.6 227.04-34.28 224.8-32.04 222.57-29.81 221.25-26.71 219.93-23.61 219.93-20.21 219.93-16.82 221.25-13.72 222.57-10.62 224.8-8.39 227.04-6.15 230.14-4.83 233.24-3.52 236.63-3.52L236.63-3.52Q240.88-3.52 244.52-5.49 248.15-7.47 250.45-10.84L250.45-10.84 251.86-9.79Q249.33-6.08 245.31-3.92 241.29-1.76 236.63-1.76L236.63-1.76Q231.63-1.76 227.38-4.24 223.13-6.71 220.65-10.96 218.17-15.21 218.17-20.21 218.17-25.22 220.65-29.47 223.13-33.72 227.38-36.19 231.63-38.67 236.63-38.67L236.63-38.67Q241.32-38.67 245.35-36.49 249.37-34.3 251.91-30.57ZM254.79-32.57L254.79-32.57 253.33-31.62Q250.55-35.69 246.14-38.06 241.73-40.43 236.63-40.43L236.63-40.43Q232.53-40.43 228.78-38.83 225.03-37.23 222.32-34.52 219.61-31.81 218.01-28.06 216.42-24.32 216.42-20.21 216.42-16.11 218.01-12.37 219.61-8.62 222.32-5.91 225.03-3.2 228.78-1.6 232.53 0 236.63 0L236.63 0Q241.73 0 246.15-2.39 250.57-4.79 253.35-8.86L253.35-8.86 254.77-7.79Q251.74-3.39 246.96-0.82 242.17 1.76 236.63 1.76L236.63 1.76Q232.16 1.76 228.1 0.01 224.03-1.73 221.09-4.68 218.15-7.62 216.4-11.68 214.66-15.75 214.66-20.21 214.66-24.68 216.4-28.75 218.15-32.81 221.09-35.75 224.03-38.7 228.1-40.44 232.16-42.19 236.63-42.19L236.63-42.19Q242.2-42.19 246.98-39.6 251.77-37.01 254.79-32.57ZM271.6-22.55Q269.54-20.48 269.54-17.58 269.54-14.67 271.6-12.61 273.66-10.55 276.57-10.55 279.47-10.55 281.54-12.61 283.6-14.67 283.6-17.58 283.6-20.48 281.54-22.55 279.47-24.61 276.57-24.61 273.66-24.61 271.6-22.55ZM270.36-11.36Q267.78-13.94 267.78-17.58 267.78-21.22 270.36-23.79 272.93-26.37 276.57-26.37 280.21-26.37 282.78-23.79 285.36-21.22 285.36-17.58 285.36-13.94 282.78-11.36 280.21-8.79 276.57-8.79 272.93-8.79 270.36-11.36ZM269.11-25.02Q266.02-21.92 266.02-17.58 266.02-13.23 269.11-10.13 272.2-7.03 276.57-7.03 280.94-7.03 284.03-10.13 287.12-13.23 287.12-17.58 287.12-21.92 284.03-25.02 280.94-28.13 276.57-28.13 272.2-28.13 269.11-25.02ZM265.91-11.4Q264.26-14.23 264.26-17.58 264.26-20.92 265.91-23.75 267.56-26.59 270.39-28.23 273.22-29.88 276.57-29.88 279.91-29.88 282.75-28.23 285.58-26.59 287.23-23.75 288.87-20.92 288.87-17.58 288.87-14.23 287.23-11.4 285.58-8.57 282.75-6.92 279.91-5.27 276.57-5.27 273.22-5.27 270.39-6.92 267.56-8.57 265.91-11.4ZM263.62-23.03Q262.51-20.43 262.51-17.58 262.51-14.72 263.62-12.12 264.73-9.52 266.62-7.63 268.51-5.74 271.11-4.63 273.71-3.52 276.57-3.52 279.43-3.52 282.03-4.63 284.63-5.74 286.52-7.63 288.41-9.52 289.52-12.12 290.63-14.72 290.63-17.58 290.63-20.43 289.52-23.03 288.41-25.63 286.52-27.53 284.63-29.42 282.03-30.53 279.43-31.64 276.57-31.64 273.71-31.64 271.11-30.53 268.51-29.42 266.62-27.53 264.73-25.63 263.62-23.03ZM262.01-11.43Q260.75-14.36 260.75-17.58 260.75-20.8 262.01-23.73 263.26-26.66 265.38-28.77 267.49-30.88 270.42-32.14 273.35-33.4 276.57-33.4 279.79-33.4 282.72-32.14 285.65-30.88 287.76-28.77 289.88-26.66 291.13-23.73 292.39-20.8 292.39-17.58 292.39-14.36 291.13-11.43 289.88-8.5 287.76-6.38 285.65-4.27 282.72-3.02 279.79-1.76 276.57-1.76 273.35-1.76 270.42-3.02 267.49-4.27 265.38-6.38 263.26-8.5 262.01-11.43ZM260.38-24.4Q258.99-21.14 258.99-17.58 258.99-14.01 260.38-10.75 261.77-7.5 264.13-5.14 266.49-2.78 269.75-1.39 273 0 276.57 0 280.13 0 283.39-1.39 286.65-2.78 289.01-5.14 291.36-7.5 292.76-10.75 294.15-14.01 294.15-17.58 294.15-21.14 292.76-24.4 291.36-27.66 289.01-30.02 286.65-32.37 283.39-33.76 280.13-35.16 276.57-35.16 273-35.16 269.75-33.76 266.49-32.37 264.13-30.02 261.77-27.66 260.38-24.4ZM258.77-10.07Q257.23-13.65 257.23-17.58 257.23-21.51 258.77-25.09 260.31-28.66 262.9-31.25 265.49-33.84 269.06-35.38 272.64-36.91 276.57-36.91 280.5-36.91 284.08-35.38 287.65-33.84 290.24-31.25 292.83-28.66 294.37-25.09 295.91-21.51 295.91-17.58 295.91-13.65 294.37-10.07 292.83-6.49 290.24-3.91 287.65-1.32 284.08 0.22 280.5 1.76 276.57 1.76 272.64 1.76 269.06 0.22 265.49-1.32 262.9-3.91 260.31-6.49 258.77-10.07ZM327.57-35.16L327.57-14.18 325.81-17.38 325.81-35.16 327.57-35.16ZM331.08-35.16L331.08-8.11 329.33-11.08 329.33-35.16 331.08-35.16ZM306.86 0L306.86-20.97 308.62-17.77 308.62 0 306.86 0ZM303.35 0L303.35-27.29 305.11-24.07 305.11 0 303.35 0ZM324.32 0L303.96-35.16 306.01-35.16 326.37 0 324.32 0ZM328.42 0L308.11-35.16 310.19-35.16 330.52 0 328.42 0ZM332.52 0L312.24-35.16 314.29-35.16 332.84-3.05 332.84-35.16 334.6-35.16 334.6 0 332.52 0ZM320.19 0L301.59-32.13 301.59 0 299.83 0 299.83-35.16 301.93-35.16 322.22 0 320.19 0ZM351.71 0L337.79-35.16 339.7-35.16 352.66-2.37 365.63-35.16 367.51-35.16 353.62 0 351.71 0ZM352.88-6.54L341.58-35.16 343.46-35.16 353.88-8.79 352.88-6.54ZM354.84-11.18L345.36-35.16 347.27-35.16 355.76-13.6 354.84-11.18ZM356.69-16.02L349.15-35.16 351.03-35.16 357.62-18.48 356.69-16.02ZM363.06 0L376.96-35.16 378.86-35.16 364.94 0 363.06 0ZM359.28 0L373.2-35.16 375.08-35.16 361.16 0 359.28 0ZM355.5 0L369.39-35.16 371.29-35.16 357.37 0 355.5 0ZM390.75-35.16L390.75 0 388.99 0 388.99-35.16 390.75-35.16ZM387.23-35.16L387.23 0 385.47 0 385.47-35.16 387.23-35.16ZM383.72-35.16L383.72 0 381.96 0 381.96-35.16 383.72-35.16ZM394.26-13.21L394.26-8.79 411.08-8.79 411.08-7.03 394.26-7.03 394.26-5.27 411.08-5.27 411.08-3.52 394.26-3.52 394.26-1.76 411.08-1.76 411.08 0 392.5 0 392.5-35.16 411.08-35.16 411.08-33.4 394.26-33.4 394.26-31.64 411.08-31.64 411.08-29.88 394.26-29.88 394.26-28.13 411.08-28.13 411.08-26.37 394.26-26.37 394.26-22 410.11-22 410.11-20.24 394.26-20.24 394.26-18.48 410.11-18.48 410.11-16.72 394.26-16.72 394.26-14.97 410.11-14.97 410.11-13.21 394.26-13.21ZM443.04-35.16L443.04-14.18 441.28-17.38 441.28-35.16 443.04-35.16ZM446.55-35.16L446.55-8.11 444.8-11.08 444.8-35.16 446.55-35.16ZM422.34 0L422.34-20.97 424.09-17.77 424.09 0 422.34 0ZM418.82 0L418.82-27.29 420.58-24.07 420.58 0 418.82 0ZM439.79 0L419.43-35.16 421.48-35.16 441.84 0 439.79 0ZM443.89 0L423.58-35.16 425.66-35.16 445.99 0 443.89 0ZM447.99 0L427.71-35.16 429.76-35.16 448.31-3.05 448.31-35.16 450.07-35.16 450.07 0 447.99 0ZM435.67 0L417.06-32.13 417.06 0 415.3 0 415.3-35.16 417.4-35.16 437.69 0 435.67 0ZM465.2 0L465.2-35.16 466.96-35.16 466.96 0 465.2 0ZM461.69 0L461.69-35.16 463.45-35.16 463.45 0 461.69 0ZM458.17 0L458.17-35.16 459.93-35.16 459.93 0 458.17 0ZM454.66 0L454.66-35.16 456.42-35.16 456.42 0 454.66 0ZM480.34-35.16L480.34 0 478.58 0 478.58-35.16 480.34-35.16ZM476.82-35.16L476.82 0 475.07 0 475.07-35.16 476.82-35.16ZM473.31-35.16L473.31 0 471.55 0 471.55-35.16 473.31-35.16ZM483.85-13.21L483.85-8.79 500.68-8.79 500.68-7.03 483.85-7.03 483.85-5.27 500.68-5.27 500.68-3.52 483.85-3.52 483.85-1.76 500.68-1.76 500.68 0 482.1 0 482.1-35.16 500.68-35.16 500.68-33.4 483.85-33.4 483.85-31.64 500.68-31.64 500.68-29.88 483.85-29.88 483.85-28.13 500.68-28.13 500.68-26.37 483.85-26.37 483.85-22 499.7-22 499.7-20.24 483.85-20.24 483.85-18.48 499.7-18.48 499.7-16.72 483.85-16.72 483.85-14.97 499.7-14.97 499.7-13.21 483.85-13.21ZM532.63-35.16L532.63-14.18 530.87-17.38 530.87-35.16 532.63-35.16ZM536.15-35.16L536.15-8.11 534.39-11.08 534.39-35.16 536.15-35.16ZM511.93 0L511.93-20.97 513.69-17.77 513.69 0 511.93 0ZM508.41 0L508.41-27.29 510.17-24.07 510.17 0 508.41 0ZM529.38 0L509.02-35.16 511.07-35.16 531.43 0 529.38 0ZM533.49 0L513.17-35.16 515.25-35.16 535.59 0 533.49 0ZM537.59 0L517.3-35.16 519.35-35.16 537.9-3.05 537.9-35.16 539.66-35.16 539.66 0 537.59 0ZM525.26 0L506.65-32.13 506.65 0 504.9 0 504.9-35.16 507-35.16 527.28 0 525.26 0ZM569.54-23.05L569.54-23.05 568.13-21.97Q566-24.61 562.66-24.61L562.66-24.61Q559.75-24.61 557.69-22.55 555.63-20.48 555.63-17.58 555.63-14.67 557.69-12.61 559.75-10.55 562.66-10.55L562.66-10.55Q564.29-10.55 565.72-11.25 567.15-11.96 568.15-13.21L568.15-13.21 569.52-12.06Q568.3-10.52 566.49-9.66 564.68-8.79 562.66-8.79L562.66-8.79Q559.02-8.79 556.44-11.36 553.87-13.94 553.87-17.58 553.87-21.22 556.44-23.79 559.02-26.37 562.66-26.37L562.66-26.37Q564.71-26.37 566.52-25.48 568.32-24.58 569.54-23.05ZM572.28-25.24L572.28-25.24 570.89-24.17Q569.42-26.03 567.26-27.08 565.1-28.13 562.66-28.13L562.66-28.13Q558.29-28.13 555.2-25.02 552.11-21.92 552.11-17.58 552.11-13.23 555.2-10.13 558.29-7.03 562.66-7.03L562.66-7.03Q565.1-7.03 567.27-8.09 569.44-9.16 570.91-11.01L570.91-11.01 572.25-9.89Q570.54-7.74 568.03-6.51 565.51-5.27 562.66-5.27L562.66-5.27Q559.31-5.27 556.48-6.92 553.65-8.57 552-11.4 550.35-14.23 550.35-17.58 550.35-20.92 552-23.75 553.65-26.59 556.48-28.23 559.31-29.88 562.66-29.88L562.66-29.88Q565.51-29.88 568.04-28.65 570.57-27.42 572.28-25.24ZM575.04-27.44L575.04-27.44 573.67-26.34Q571.69-28.81 568.81-30.22 565.93-31.64 562.66-31.64L562.66-31.64Q559.8-31.64 557.2-30.53 554.6-29.42 552.71-27.53 550.82-25.63 549.71-23.03 548.6-20.43 548.6-17.58 548.6-14.72 549.71-12.12 550.82-9.52 552.71-7.63 554.6-5.74 557.2-4.63 559.8-3.52 562.66-3.52L562.66-3.52Q565.93-3.52 568.81-4.93 571.69-6.35 573.67-8.81L573.67-8.81 574.99-7.67Q572.77-4.91 569.54-3.33 566.32-1.76 562.66-1.76L562.66-1.76Q559.44-1.76 556.51-3.02 553.58-4.27 551.46-6.38 549.35-8.5 548.09-11.43 546.84-14.36 546.84-17.58 546.84-20.8 548.09-23.73 549.35-26.66 551.46-28.77 553.58-30.88 556.51-32.14 559.44-33.4 562.66-33.4L562.66-33.4Q566.34-33.4 569.58-31.81 572.81-30.22 575.04-27.44ZM577.77-29.64L577.77-29.64 576.35-28.59Q573.89-31.64 570.31-33.4 566.73-35.16 562.66-35.16L562.66-35.16Q559.09-35.16 555.83-33.76 552.57-32.37 550.22-30.02 547.86-27.66 546.47-24.4 545.08-21.14 545.08-17.58 545.08-14.01 546.47-10.75 547.86-7.5 550.22-5.14 552.57-2.78 555.83-1.39 559.09 0 562.66 0L562.66 0Q566.73 0 570.31-1.76 573.89-3.52 576.35-6.57L576.35-6.57 577.75-5.49Q575.04-2.12 571.09-0.18 567.15 1.76 562.66 1.76L562.66 1.76Q558.73 1.76 555.15 0.22 551.57-1.32 548.99-3.91 546.4-6.49 544.86-10.07 543.32-13.65 543.32-17.58 543.32-21.51 544.86-25.09 546.4-28.66 548.99-31.25 551.57-33.84 555.15-35.38 558.73-36.91 562.66-36.91L562.66-36.91Q567.15-36.91 571.11-34.97 575.06-33.03 577.77-29.64ZM589.88-35.16L589.88 0 588.12 0 588.12-35.16 589.88-35.16ZM586.36-35.16L586.36 0 584.6 0 584.6-35.16 586.36-35.16ZM582.85-35.16L582.85 0 581.09 0 581.09-35.16 582.85-35.16ZM593.39-13.21L593.39-8.79 610.21-8.79 610.21-7.03 593.39-7.03 593.39-5.27 610.21-5.27 610.21-3.52 593.39-3.52 593.39-1.76 610.21-1.76 610.21 0 591.63 0 591.63-35.16 610.21-35.16 610.21-33.4 593.39-33.4 593.39-31.64 610.21-31.64 610.21-29.88 593.39-29.88 593.39-28.13 610.21-28.13 610.21-26.37 593.39-26.37 593.39-22 609.24-22 609.24-20.24 593.39-20.24 593.39-18.48 609.24-18.48 609.24-16.72 593.39-16.72 593.39-14.97 609.24-14.97 609.24-13.21 593.39-13.21ZM648.95 0L648.95-14.75 650.71-18.07 650.71 0 648.95 0ZM652.47 0L652.47-21.48 654.23-24.8 654.23 0 652.47 0ZM655.99 0L655.99-28.13 657.74-31.47 657.74 0 655.99 0ZM657.28-40.43L644.19-15.58 643.19-17.41 655.3-40.43 657.28-40.43ZM653.3-40.43L642.17-19.41 641.14-21.26 651.3-40.43 653.3-40.43ZM630.4 0L630.4-17.87 632.16-14.55 632.16 0 630.4 0ZM626.88 0L626.88-24.56 628.64-21.24 628.64 0 626.88 0ZM623.37 0L623.37-31.25 625.13-27.91 625.13 0 623.37 0ZM621.83-40.43L637.58-10.55 635.6-10.55 621.61-37.08 621.61 0 619.85 0 619.85-40.43 621.83-40.43ZM625.83-40.43L641.56-10.55 639.55-10.55 623.83-40.43 625.83-40.43ZM659.5 0L659.5-37.08 645.51-10.55 643.51-10.55 627.81-40.43 629.79-40.43 644.54-12.4 659.26-40.43 661.26-40.43 661.26 0 659.5 0ZM674.68-35.16L674.68 0 672.93 0 672.93-35.16 674.68-35.16ZM671.17-35.16L671.17 0 669.41 0 669.41-35.16 671.17-35.16ZM667.65-35.16L667.65 0 665.89 0 665.89-35.16 667.65-35.16ZM678.2-13.21L678.2-8.79 695.02-8.79 695.02-7.03 678.2-7.03 678.2-5.27 695.02-5.27 695.02-3.52 678.2-3.52 678.2-1.76 695.02-1.76 695.02 0 676.44 0 676.44-35.16 695.02-35.16 695.02-33.4 678.2-33.4 678.2-31.64 695.02-31.64 695.02-29.88 678.2-29.88 678.2-28.13 695.02-28.13 695.02-26.37 678.2-26.37 678.2-22 694.04-22 694.04-20.24 678.2-20.24 678.2-18.48 694.04-18.48 694.04-16.72 678.2-16.72 678.2-14.97 694.04-14.97 694.04-13.21 678.2-13.21ZM708.03-35.16L708.03 0 706.27 0 706.27-35.16 708.03-35.16ZM704.52-35.16L704.52 0 702.76 0 702.76-35.16 704.52-35.16ZM701-35.16L701 0 699.24 0 699.24-35.16 701-35.16ZM711.55-13.21L711.55-8.79 728.37-8.79 728.37-7.03 711.55-7.03 711.55-5.27 728.37-5.27 728.37-3.52 711.55-3.52 711.55-1.76 728.37-1.76 728.37 0 709.79 0 709.79-35.16 728.37-35.16 728.37-33.4 711.55-33.4 711.55-31.64 728.37-31.64 728.37-29.88 711.55-29.88 711.55-28.13 728.37-28.13 728.37-26.37 711.55-26.37 711.55-22 727.39-22 727.39-20.24 711.55-20.24 711.55-18.48 727.39-18.48 727.39-16.72 711.55-16.72 711.55-14.97 727.39-14.97 727.39-13.21 711.55-13.21ZM738.81 0L738.81-25.42 740.57-25.42 740.57 0 738.81 0ZM758.15-33.4L731.78-33.4 731.78-35.16 758.15-35.16 758.15-33.4ZM758.15-29.88L731.78-29.88 731.78-31.64 758.15-31.64 758.15-29.88ZM758.15-26.37L731.78-26.37 731.78-28.13 758.15-28.13 758.15-26.37ZM749.36 0L749.36-25.42 751.12-25.42 751.12 0 749.36 0ZM745.85 0L745.85-25.42 747.6-25.42 747.6 0 745.85 0ZM742.33 0L742.33-25.42 744.09-25.42 744.09 0 742.33 0ZM778.17-16.72L778.17-16.72 775.38-16.72Q770.26-16.72 767.5-18.81 764.74-20.9 764.74-24.56L764.74-24.56Q764.74-27.98 767.99-30.26 771.23-32.54 777.09-32.54L777.09-32.54Q781-32.54 784.38-31.47 787.76-30.4 790.01-28.44L790.01-28.44 788.64-27.34Q786.64-28.98 783.61-29.88 780.58-30.79 777.09-30.79L777.09-30.79Q771.94-30.79 769.22-29.03 766.5-27.27 766.5-24.56L766.5-24.56Q766.5-21.63 768.73-20.06 770.97-18.48 775.38-18.48L775.38-18.48 778.07-18.48Q783.27-18.48 786.04-16.39 788.81-14.31 788.81-10.64L788.81-10.64Q788.81-7.23 785.57-4.94 782.32-2.66 776.46-2.66L776.46-2.66Q772.55-2.66 769.17-3.74 765.79-4.81 763.54-6.76L763.54-6.76 764.91-7.86Q766.91-6.23 769.94-5.32 772.97-4.42 776.46-4.42L776.46-4.42Q781.61-4.42 784.33-6.18 787.05-7.93 787.05-10.64L787.05-10.64Q787.05-13.57 784.82-15.15 782.59-16.72 778.17-16.72ZM778.17-13.21L778.17-13.21 775.38-13.21Q768.6-13.21 764.91-16.3 761.22-19.38 761.22-24.56L761.22-24.56Q761.22-26.93 762.27-29 763.32-31.08 765.29-32.65 767.25-34.23 770.31-35.14 773.36-36.06 777.09-36.06L777.09-36.06Q781.81-36.06 785.91-34.63 790.01-33.2 792.74-30.64L792.74-30.64 791.33-29.59Q788.84-31.84 785.1-33.07 781.37-34.3 777.09-34.3L777.09-34.3Q770.5-34.3 766.74-31.52 762.98-28.74 762.98-24.56L762.98-24.56Q762.98-20.14 766.2-17.55 769.43-14.97 775.38-14.97L775.38-14.97 778.07-14.97Q785.3-14.97 785.3-10.64L785.3-10.64Q785.3-8.69 783.09-7.43 780.88-6.18 776.46-6.18L776.46-6.18Q773.36-6.18 770.7-6.9 768.04-7.62 766.3-8.96L766.3-8.96 767.69-10.03Q770.75-7.93 776.46-7.93L776.46-7.93Q780.12-7.93 781.83-8.69 783.54-9.45 783.54-10.64L783.54-10.64Q783.54-12.04 782.34-12.62 781.15-13.21 778.17-13.21ZM778.17-20.24L778.17-20.24 775.38-20.24Q768.26-20.24 768.26-24.56L768.26-24.56Q768.26-26.51 770.47-27.77 772.67-29.03 777.09-29.03L777.09-29.03Q780.19-29.03 782.86-28.31 785.52-27.59 787.25-26.25L787.25-26.25 785.86-25.17Q782.81-27.27 777.09-27.27L777.09-27.27Q773.43-27.27 771.72-26.51 770.01-25.76 770.01-24.56L770.01-24.56Q770.01-23.17 771.21-22.58 772.41-22 775.38-22L775.38-22 778.17-22Q784.95-22 788.64-18.91 792.33-15.82 792.33-10.64L792.33-10.64Q792.33-8.28 791.28-6.2 790.23-4.13 788.26-2.55 786.3-0.98 783.25-0.06 780.19 0.85 776.46 0.85L776.46 0.85Q771.75 0.85 767.65-0.57 763.54-2 760.81-4.57L760.81-4.57 762.23-5.62Q764.72-3.37 768.45-2.14 772.19-0.9 776.46-0.9L776.46-0.9Q783.05-0.9 786.81-3.69 790.57-6.47 790.57-10.64L790.57-10.64Q790.57-15.06 787.35-17.65 784.12-20.24 778.17-20.24ZM832.09-26.61L832.09-26.61 830.65-25.66Q829.33-27.61 827.22-28.75 825.11-29.88 822.65-29.88L822.65-29.88Q818.64-29.88 815.81-27.05 812.98-24.22 812.98-20.21 812.98-16.21 815.81-13.38 818.64-10.55 822.65-10.55L822.65-10.55Q825.11-10.55 827.22-11.69 829.33-12.84 830.65-14.79L830.65-14.79 832.07-13.77Q830.51-11.47 828.02-10.13 825.53-8.79 822.65-8.79L822.65-8.79Q820.33-8.79 818.21-9.69 816.1-10.6 814.56-12.13 813.03-13.67 812.12-15.78 811.22-17.9 811.22-20.21 811.22-22.53 812.12-24.65 813.03-26.76 814.56-28.3 816.1-29.83 818.21-30.74 820.33-31.64 822.65-31.64L822.65-31.64Q825.55-31.64 828.04-30.29 830.53-28.93 832.09-26.61ZM835-28.61L835-28.61 833.53-27.66Q831.73-30.3 828.86-31.85 825.99-33.4 822.65-33.4L822.65-33.4Q819.06-33.4 816.03-31.63 813-29.86 811.23-26.83 809.46-23.8 809.46-20.21 809.46-16.63 811.23-13.6 813-10.57 816.03-8.8 819.06-7.03 822.65-7.03L822.65-7.03Q825.99-7.03 828.87-8.59 831.75-10.16 833.56-12.82L833.56-12.82 835-11.82Q832.95-8.79 829.69-7.03 826.43-5.27 822.65-5.27L822.65-5.27Q818.59-5.27 815.15-7.28 811.71-9.28 809.71-12.72 807.7-16.16 807.7-20.21 807.7-24.27 809.71-27.71 811.71-31.15 815.15-33.15 818.59-35.16 822.65-35.16L822.65-35.16Q826.43-35.16 829.69-33.4 832.95-31.64 835-28.61ZM837.93-30.57L837.93-30.57 836.46-29.61Q834.17-32.98 830.52-34.95 826.87-36.91 822.65-36.91L822.65-36.91Q819.25-36.91 816.15-35.6 813.05-34.28 810.82-32.04 808.58-29.81 807.26-26.71 805.95-23.61 805.95-20.21 805.95-16.82 807.26-13.72 808.58-10.62 810.82-8.39 813.05-6.15 816.15-4.83 819.25-3.52 822.65-3.52L822.65-3.52Q826.89-3.52 830.53-5.49 834.17-7.47 836.46-10.84L836.46-10.84 837.88-9.79Q835.34-6.08 831.32-3.92 827.31-1.76 822.65-1.76L822.65-1.76Q817.64-1.76 813.39-4.24 809.14-6.71 806.67-10.96 804.19-15.21 804.19-20.21 804.19-25.22 806.67-29.47 809.14-33.72 813.39-36.19 817.64-38.67 822.65-38.67L822.65-38.67Q827.33-38.67 831.36-36.49 835.39-34.3 837.93-30.57ZM840.81-32.57L840.81-32.57 839.34-31.62Q836.56-35.69 832.15-38.06 827.75-40.43 822.65-40.43L822.65-40.43Q818.54-40.43 814.8-38.83 811.05-37.23 808.34-34.52 805.63-31.81 804.03-28.06 802.43-24.32 802.43-20.21 802.43-16.11 804.03-12.37 805.63-8.62 808.34-5.91 811.05-3.2 814.8-1.6 818.54 0 822.65 0L822.65 0Q827.75 0 832.17-2.39 836.59-4.79 839.37-8.86L839.37-8.86 840.78-7.79Q837.76-3.39 832.97-0.82 828.19 1.76 822.65 1.76L822.65 1.76Q818.18 1.76 814.11 0.01 810.05-1.73 807.11-4.68 804.16-7.62 802.42-11.68 800.67-15.75 800.67-20.21 800.67-24.68 802.42-28.75 804.16-32.81 807.11-35.75 810.05-38.7 814.11-40.44 818.18-42.19 822.65-42.19L822.65-42.19Q828.21-42.19 833-39.6 837.78-37.01 840.81-32.57ZM857.62-22.55Q855.55-20.48 855.55-17.58 855.55-14.67 857.62-12.61 859.68-10.55 862.58-10.55 865.49-10.55 867.55-12.61 869.62-14.67 869.62-17.58 869.62-20.48 867.55-22.55 865.49-24.61 862.58-24.61 859.68-24.61 857.62-22.55ZM856.37-11.36Q853.79-13.94 853.79-17.58 853.79-21.22 856.37-23.79 858.95-26.37 862.58-26.37 866.22-26.37 868.8-23.79 871.37-21.22 871.37-17.58 871.37-13.94 868.8-11.36 866.22-8.79 862.58-8.79 858.95-8.79 856.37-11.36ZM855.13-25.02Q852.04-21.92 852.04-17.58 852.04-13.23 855.13-10.13 858.21-7.03 862.58-7.03 866.95-7.03 870.04-10.13 873.13-13.23 873.13-17.58 873.13-21.92 870.04-25.02 866.95-28.13 862.58-28.13 858.21-28.13 855.13-25.02ZM851.93-11.4Q850.28-14.23 850.28-17.58 850.28-20.92 851.93-23.75 853.58-26.59 856.41-28.23 859.24-29.88 862.58-29.88 865.93-29.88 868.76-28.23 871.59-26.59 873.24-23.75 874.89-20.92 874.89-17.58 874.89-14.23 873.24-11.4 871.59-8.57 868.76-6.92 865.93-5.27 862.58-5.27 859.24-5.27 856.41-6.92 853.58-8.57 851.93-11.4ZM849.63-23.03Q848.52-20.43 848.52-17.58 848.52-14.72 849.63-12.12 850.74-9.52 852.64-7.63 854.53-5.74 857.13-4.63 859.73-3.52 862.58-3.52 865.44-3.52 868.04-4.63 870.64-5.74 872.53-7.63 874.42-9.52 875.54-12.12 876.65-14.72 876.65-17.58 876.65-20.43 875.54-23.03 874.42-25.63 872.53-27.53 870.64-29.42 868.04-30.53 865.44-31.64 862.58-31.64 859.73-31.64 857.13-30.53 854.53-29.42 852.64-27.53 850.74-25.63 849.63-23.03ZM848.02-11.43Q846.76-14.36 846.76-17.58 846.76-20.8 848.02-23.73 849.28-26.66 851.39-28.77 853.5-30.88 856.43-32.14 859.36-33.4 862.58-33.4 865.81-33.4 868.74-32.14 871.67-30.88 873.78-28.77 875.89-26.66 877.15-23.73 878.4-20.8 878.4-17.58 878.4-14.36 877.15-11.43 875.89-8.5 873.78-6.38 871.67-4.27 868.74-3.02 865.81-1.76 862.58-1.76 859.36-1.76 856.43-3.02 853.5-4.27 851.39-6.38 849.28-8.5 848.02-11.43ZM846.4-24.4Q845.01-21.14 845.01-17.58 845.01-14.01 846.4-10.75 847.79-7.5 850.15-5.14 852.5-2.78 855.76-1.39 859.02 0 862.58 0 866.15 0 869.41-1.39 872.67-2.78 875.02-5.14 877.38-7.5 878.77-10.75 880.16-14.01 880.16-17.58 880.16-21.14 878.77-24.4 877.38-27.66 875.02-30.02 872.67-32.37 869.41-33.76 866.15-35.16 862.58-35.16 859.02-35.16 855.76-33.76 852.5-32.37 850.15-30.02 847.79-27.66 846.4-24.4ZM844.79-10.07Q843.25-13.65 843.25-17.58 843.25-21.51 844.79-25.09 846.32-28.66 848.91-31.25 851.5-33.84 855.08-35.38 858.65-36.91 862.58-36.91 866.51-36.91 870.09-35.38 873.67-33.84 876.26-31.25 878.84-28.66 880.38-25.09 881.92-21.51 881.92-17.58 881.92-13.65 880.38-10.07 878.84-6.49 876.26-3.91 873.67-1.32 870.09 0.22 866.51 1.76 862.58 1.76 858.65 1.76 855.08 0.22 851.5-1.32 848.91-3.91 846.32-6.49 844.79-10.07ZM908.31-21.97L908.31-21.97 908.31 0 906.55 0 906.55-21.97Q906.55-22.68 906.32-23.18 906.09-23.68 905.72-23.95 905.35-24.22 904.76-24.38 904.16-24.54 903.6-24.57 903.04-24.61 902.21-24.61 901.38-24.61 900.81-24.57 900.25-24.54 899.65-24.38 899.06-24.22 898.69-23.95 898.32-23.68 898.09-23.18 897.86-22.68 897.86-21.97L897.86-21.97 897.86 0 896.1 0 896.1-21.97Q896.1-26.37 902.21-26.37 908.31-26.37 908.31-21.97ZM911.82-21.97L911.82-21.97 911.82 0 910.07 0 910.07-21.97Q910.07-25.07 907.88-26.6 905.7-28.13 902.21-28.13 898.71-28.13 896.53-26.6 894.34-25.07 894.34-21.97L894.34-21.97 894.34 0 892.59 0 892.59-21.97Q892.59-24.54 893.9-26.37 895.22-28.2 897.36-29.04 899.5-29.88 902.21-29.88 904.92-29.88 907.05-29.04 909.19-28.2 910.51-26.37 911.82-24.54 911.82-21.97ZM915.34-21.97L915.34-21.97 915.34 0 913.58 0 913.58-21.97Q913.58-24.27 912.69-26.12 911.8-27.98 910.24-29.17 908.68-30.37 906.62-31.01 904.57-31.64 902.21-31.64 899.84-31.64 897.79-31.01 895.74-30.37 894.17-29.17 892.61-27.98 891.72-26.12 890.83-24.27 890.83-21.97L890.83-21.97 890.83 0 889.07 0 889.07-21.97Q889.07-24.63 890.11-26.81 891.15-28.98 892.93-30.41 894.71-31.84 897.1-32.62 899.5-33.4 902.21-33.4 904.92-33.4 907.31-32.62 909.7-31.84 911.48-30.41 913.27-28.98 914.3-26.81 915.34-24.63 915.34-21.97ZM918.86-21.97L918.86 0 917.1 0 917.1-21.97Q917.1-24.63 915.91-27.08 914.73-29.52 912.73-31.29 910.73-33.06 907.97-34.11 905.21-35.16 902.21-35.16L902.21-35.16Q898.08-35.16 894.72-33.61 891.37-32.06 889.34-29.02 887.31-25.98 887.31-21.97L887.31-21.97 887.31 0 885.56 0 885.56-21.97Q885.56-25.34 886.87-28.17 888.19-31.01 890.45-32.91 892.71-34.81 895.75-35.86 898.79-36.91 902.21-36.91L902.21-36.91Q908.26-36.91 912.7-33.86L912.7-33.86Q917.15-36.91 923.2-36.91L923.2-36.91Q926.62-36.91 929.66-35.86 932.7-34.81 934.96-32.91 937.22-31.01 938.53-28.17 939.85-25.34 939.85-21.97L939.85-21.97 939.85 0 938.09 0 938.09-21.97Q938.09-25.95 936.07-28.99 934.04-32.03 930.68-33.59 927.33-35.16 923.2-35.16L923.2-35.16Q918.03-35.16 914.17-32.71L914.17-32.71Q914.73-32.23 915.41-31.45L915.41-31.45Q918.76-33.4 923.2-33.4L923.2-33.4Q925.91-33.4 928.3-32.62 930.7-31.84 932.48-30.41 934.26-28.98 935.3-26.81 936.34-24.63 936.34-21.97L936.34-21.97 936.34 0 934.58 0 934.58-21.97Q934.58-24.27 933.69-26.12 932.8-27.98 931.23-29.17 929.67-30.37 927.62-31.01 925.57-31.64 923.2-31.64L923.2-31.64Q919.32-31.64 916.49-30.05L916.49-30.05Q916.93-29.37 917.37-28.54L917.37-28.54Q919.76-29.88 923.2-29.88L923.2-29.88Q925.91-29.88 928.05-29.04 930.18-28.2 931.5-26.37 932.82-24.54 932.82-21.97L932.82-21.97 932.82 0 931.06 0 931.06-21.97Q931.06-25.07 928.88-26.6 926.69-28.13 923.2-28.13L923.2-28.13Q920.03-28.13 918.05-26.95L918.05-26.95Q918.37-26.03 918.54-25.2L918.54-25.2Q920.08-26.37 923.2-26.37L923.2-26.37Q929.31-26.37 929.31-21.97L929.31-21.97 929.31 0 927.55 0 927.55-21.97Q927.55-22.68 927.32-23.18 927.08-23.68 926.72-23.95 926.35-24.22 925.75-24.38 925.15-24.54 924.59-24.57 924.03-24.61 923.2-24.61 922.37-24.61 921.81-24.57 921.25-24.54 920.65-24.38 920.05-24.22 919.69-23.95 919.32-23.68 919.09-23.18 918.86-22.68 918.86-21.97L918.86-21.97ZM966.7-21.97L966.7-21.97 966.7 0 964.95 0 964.95-21.97Q964.95-22.68 964.72-23.18 964.48-23.68 964.12-23.95 963.75-24.22 963.15-24.38 962.55-24.54 961.99-24.57 961.43-24.61 960.6-24.61 959.77-24.61 959.21-24.57 958.65-24.54 958.05-24.38 957.45-24.22 957.09-23.95 956.72-23.68 956.49-23.18 956.26-22.68 956.26-21.97L956.26-21.97 956.26 0 954.5 0 954.5-21.97Q954.5-26.37 960.6-26.37 966.7-26.37 966.7-21.97ZM970.22-21.97L970.22-21.97 970.22 0 968.46 0 968.46-21.97Q968.46-25.07 966.28-26.6 964.09-28.13 960.6-28.13 957.11-28.13 954.93-26.6 952.74-25.07 952.74-21.97L952.74-21.97 952.74 0 950.98 0 950.98-21.97Q950.98-24.54 952.3-26.37 953.62-28.2 955.76-29.04 957.89-29.88 960.6-29.88 963.31-29.88 965.45-29.04 967.58-28.2 968.9-26.37 970.22-24.54 970.22-21.97ZM973.74-21.97L973.74-21.97 973.74 0 971.98 0 971.98-21.97Q971.98-24.27 971.09-26.12 970.2-27.98 968.63-29.17 967.07-30.37 965.02-31.01 962.97-31.64 960.6-31.64 958.23-31.64 956.18-31.01 954.13-30.37 952.57-29.17 951.01-27.98 950.12-26.12 949.22-24.27 949.22-21.97L949.22-21.97 949.22 0 947.47 0 947.47-21.97Q947.47-24.63 948.5-26.81 949.54-28.98 951.32-30.41 953.11-31.84 955.5-32.62 957.89-33.4 960.6-33.4 963.31-33.4 965.7-32.62 968.1-31.84 969.88-30.41 971.66-28.98 972.7-26.81 973.74-24.63 973.74-21.97ZM977.25-21.97L977.25 0 975.49 0 975.49-21.97Q975.49-24.63 974.31-27.08 973.13-29.52 971.12-31.29 969.12-33.06 966.36-34.11 963.6-35.16 960.6-35.16L960.6-35.16Q956.48-35.16 953.12-33.61 949.76-32.06 947.74-29.02 945.71-25.98 945.71-21.97L945.71-21.97 945.71 0 943.95 0 943.95-21.97Q943.95-25.34 945.27-28.17 946.59-31.01 948.85-32.91 951.1-34.81 954.14-35.86 957.18-36.91 960.6-36.91L960.6-36.91Q966.66-36.91 971.1-33.86L971.1-33.86Q975.54-36.91 981.6-36.91L981.6-36.91Q985.02-36.91 988.06-35.86 991.09-34.81 993.35-32.91 995.61-31.01 996.93-28.17 998.25-25.34 998.25-21.97L998.25-21.97 998.25 0 996.49 0 996.49-21.97Q996.49-25.95 994.46-28.99 992.44-32.03 989.08-33.59 985.72-35.16 981.6-35.16L981.6-35.16Q976.42-35.16 972.56-32.71L972.56-32.71Q973.13-32.23 973.81-31.45L973.81-31.45Q977.15-33.4 981.6-33.4L981.6-33.4Q984.31-33.4 986.7-32.62 989.09-31.84 990.87-30.41 992.66-28.98 993.69-26.81 994.73-24.63 994.73-21.97L994.73-21.97 994.73 0 992.97 0 992.97-21.97Q992.97-24.27 992.08-26.12 991.19-27.98 989.63-29.17 988.07-30.37 986.02-31.01 983.97-31.64 981.6-31.64L981.6-31.64Q977.72-31.64 974.88-30.05L974.88-30.05Q975.32-29.37 975.76-28.54L975.76-28.54Q978.16-29.88 981.6-29.88L981.6-29.88Q984.31-29.88 986.44-29.04 988.58-28.2 989.9-26.37 991.22-24.54 991.22-21.97L991.22-21.97 991.22 0 989.46 0 989.46-21.97Q989.46-25.07 987.27-26.6 985.09-28.13 981.6-28.13L981.6-28.13Q978.42-28.13 976.45-26.95L976.45-26.95Q976.76-26.03 976.93-25.2L976.93-25.2Q978.47-26.37 981.6-26.37L981.6-26.37Q987.7-26.37 987.7-21.97L987.7-21.97 987.7 0 985.94 0 985.94-21.97Q985.94-22.68 985.71-23.18 985.48-23.68 985.11-23.95 984.75-24.22 984.15-24.38 983.55-24.54 982.99-24.57 982.43-24.61 981.6-24.61 980.77-24.61 980.21-24.57 979.64-24.54 979.05-24.38 978.45-24.22 978.08-23.95 977.72-23.68 977.48-23.18 977.25-22.68 977.25-21.97L977.25-21.97ZM1011.43-35.16L1011.43 0 1009.67 0 1009.67-35.16 1011.43-35.16ZM1007.91-35.16L1007.91 0 1006.16 0 1006.16-35.16 1007.91-35.16ZM1004.4-35.16L1004.4 0 1002.64 0 1002.64-35.16 1004.4-35.16ZM1014.94-13.21L1014.94-8.79 1031.77-8.79 1031.77-7.03 1014.94-7.03 1014.94-5.27 1031.77-5.27 1031.77-3.52 1014.94-3.52 1014.94-1.76 1031.77-1.76 1031.77 0 1013.19 0 1013.19-35.16 1031.77-35.16 1031.77-33.4 1014.94-33.4 1014.94-31.64 1031.77-31.64 1031.77-29.88 1014.94-29.88 1014.94-28.13 1031.77-28.13 1031.77-26.37 1014.94-26.37 1014.94-22 1030.79-22 1030.79-20.24 1014.94-20.24 1014.94-18.48 1030.79-18.48 1030.79-16.72 1014.94-16.72 1014.94-14.97 1030.79-14.97 1030.79-13.21 1014.94-13.21ZM1049.27-15.04L1049.27-16.8 1059.86-16.8Q1061.96-16.8 1063.43-18.12 1064.89-19.43 1064.89-21.83L1064.89-21.83Q1064.89-23.58 1063.37-24.98 1061.84-26.37 1059.86-26.37L1059.86-26.37 1044.78-26.37 1044.78 0 1043.02 0 1043.02-28.13 1059.86-28.13Q1062.57-28.13 1064.61-26.22 1066.65-24.32 1066.65-21.83L1066.65-21.83Q1066.65-18.73 1064.67-16.88 1062.7-15.04 1059.86-15.04L1059.86-15.04 1049.27-15.04ZM1049.27-11.52L1049.27-13.28 1059.86-13.28Q1063.38-13.28 1065.89-15.67 1068.41-18.07 1068.41-21.83L1068.41-21.83Q1068.41-25.02 1065.85-27.45 1063.28-29.88 1059.86-29.88L1059.86-29.88 1041.26-29.88 1041.26 0 1039.5 0 1039.5-31.64 1059.86-31.64Q1064.01-31.64 1067.09-28.7 1070.17-25.76 1070.17-21.83L1070.17-21.83Q1070.17-17.43 1067.13-14.48 1064.09-11.52 1059.86-11.52L1059.86-11.52 1049.27-11.52ZM1049.27-8.01L1049.27-9.77 1059.86-9.77Q1063.11-9.77 1065.87-11.33 1068.63-12.89 1070.28-15.67 1071.92-18.46 1071.92-21.83L1071.92-21.83Q1071.92-24.88 1070.29-27.55 1068.65-30.22 1065.86-31.81 1063.06-33.4 1059.86-33.4L1059.86-33.4 1037.74-33.4 1037.74 0 1035.99 0 1035.99-35.16 1059.86-35.16Q1062.62-35.16 1065.17-34.07 1067.73-32.98 1069.58-31.19 1071.44-29.39 1072.56-26.93 1073.68-24.46 1073.68-21.83L1073.68-21.83Q1073.68-17.55 1071.73-14.37 1069.78-11.18 1066.48-9.52L1066.48-9.52 1070.17 0 1068.29 0 1064.8-8.81Q1064.14-8.59 1063.26-8.37L1063.26-8.37 1066.55 0 1064.67 0 1061.45-8.08Q1060.69-8.01 1059.86-8.01L1059.86-8.01 1062.96 0 1061.11 0 1058.03-8.01 1056.45-8.01 1059.4 0 1057.54 0 1054.57-8.01 1049.27-8.01ZM1048.29-22.85L1048.29 0 1046.53 0 1046.53-24.61 1059.86-24.61Q1061.23-24.61 1062.18-23.79 1063.14-22.97 1063.14-21.83L1063.14-21.83Q1063.14-18.55 1059.86-18.55L1059.86-18.55 1049.27-18.55 1049.27-20.31 1059.86-20.31Q1061.38-20.31 1061.38-21.83L1061.38-21.83Q1061.38-22.24 1060.93-22.55 1060.47-22.85 1059.86-22.85L1059.86-22.85 1048.29-22.85ZM1102.85-23.05L1102.85-23.05 1101.44-21.97Q1099.31-24.61 1095.97-24.61L1095.97-24.61Q1093.06-24.61 1091-22.55 1088.94-20.48 1088.94-17.58 1088.94-14.67 1091-12.61 1093.06-10.55 1095.97-10.55L1095.97-10.55Q1097.61-10.55 1099.03-11.25 1100.46-11.96 1101.46-13.21L1101.46-13.21 1102.83-12.06Q1101.61-10.52 1099.8-9.66 1098-8.79 1095.97-8.79L1095.97-8.79Q1092.33-8.79 1089.76-11.36 1087.18-13.94 1087.18-17.58 1087.18-21.22 1089.76-23.79 1092.33-26.37 1095.97-26.37L1095.97-26.37Q1098.02-26.37 1099.83-25.48 1101.63-24.58 1102.85-23.05ZM1105.59-25.24L1105.59-25.24 1104.2-24.17Q1102.73-26.03 1100.57-27.08 1098.41-28.13 1095.97-28.13L1095.97-28.13Q1091.6-28.13 1088.51-25.02 1085.42-21.92 1085.42-17.58 1085.42-13.23 1088.51-10.13 1091.6-7.03 1095.97-7.03L1095.97-7.03Q1098.41-7.03 1100.58-8.09 1102.76-9.16 1104.22-11.01L1104.22-11.01 1105.56-9.89Q1103.86-7.74 1101.34-6.51 1098.83-5.27 1095.97-5.27L1095.97-5.27Q1092.63-5.27 1089.79-6.92 1086.96-8.57 1085.31-11.4 1083.67-14.23 1083.67-17.58 1083.67-20.92 1085.31-23.75 1086.96-26.59 1089.79-28.23 1092.63-29.88 1095.97-29.88L1095.97-29.88Q1098.83-29.88 1101.35-28.65 1103.88-27.42 1105.59-25.24ZM1108.35-27.44L1108.35-27.44 1106.98-26.34Q1105-28.81 1102.12-30.22 1099.24-31.64 1095.97-31.64L1095.97-31.64Q1093.11-31.64 1090.51-30.53 1087.91-29.42 1086.02-27.53 1084.13-25.63 1083.02-23.03 1081.91-20.43 1081.91-17.58 1081.91-14.72 1083.02-12.12 1084.13-9.52 1086.02-7.63 1087.91-5.74 1090.51-4.63 1093.11-3.52 1095.97-3.52L1095.97-3.52Q1099.24-3.52 1102.12-4.93 1105-6.35 1106.98-8.81L1106.98-8.81 1108.3-7.67Q1106.08-4.91 1102.85-3.33 1099.63-1.76 1095.97-1.76L1095.97-1.76Q1092.75-1.76 1089.82-3.02 1086.89-4.27 1084.78-6.38 1082.66-8.5 1081.41-11.43 1080.15-14.36 1080.15-17.58 1080.15-20.8 1081.41-23.73 1082.66-26.66 1084.78-28.77 1086.89-30.88 1089.82-32.14 1092.75-33.4 1095.97-33.4L1095.97-33.4Q1099.66-33.4 1102.89-31.81 1106.13-30.22 1108.35-27.44ZM1111.08-29.64L1111.08-29.64 1109.67-28.59Q1107.2-31.64 1103.62-33.4 1100.05-35.16 1095.97-35.16L1095.97-35.16Q1092.41-35.16 1089.15-33.76 1085.89-32.37 1083.53-30.02 1081.17-27.66 1079.78-24.4 1078.39-21.14 1078.39-17.58 1078.39-14.01 1079.78-10.75 1081.17-7.5 1083.53-5.14 1085.89-2.78 1089.15-1.39 1092.41 0 1095.97 0L1095.97 0Q1100.05 0 1103.62-1.76 1107.2-3.52 1109.67-6.57L1109.67-6.57 1111.06-5.49Q1108.35-2.12 1104.4-0.18 1100.46 1.76 1095.97 1.76L1095.97 1.76Q1092.04 1.76 1088.46 0.22 1084.89-1.32 1082.3-3.91 1079.71-6.49 1078.17-10.07 1076.63-13.65 1076.63-17.58 1076.63-21.51 1078.17-25.09 1079.71-28.66 1082.3-31.25 1084.89-33.84 1088.46-35.38 1092.04-36.91 1095.97-36.91L1095.97-36.91Q1100.46-36.91 1104.42-34.97 1108.37-33.03 1111.08-29.64ZM1123.19-35.16L1123.19 0 1121.43 0 1121.43-35.16 1123.19-35.16ZM1119.67-35.16L1119.67 0 1117.92 0 1117.92-35.16 1119.67-35.16ZM1116.16-35.16L1116.16 0 1114.4 0 1114.4-35.16 1116.16-35.16ZM1126.7-13.21L1126.7-8.79 1143.53-8.79 1143.53-7.03 1126.7-7.03 1126.7-5.27 1143.53-5.27 1143.53-3.52 1126.7-3.52 1126.7-1.76 1143.53-1.76 1143.53 0 1124.95 0 1124.95-35.16 1143.53-35.16 1143.53-33.4 1126.7-33.4 1126.7-31.64 1143.53-31.64 1143.53-29.88 1126.7-29.88 1126.7-28.13 1143.53-28.13 1143.53-26.37 1126.7-26.37 1126.7-22 1142.55-22 1142.55-20.24 1126.7-20.24 1126.7-18.48 1142.55-18.48 1142.55-16.72 1126.7-16.72 1126.7-14.97 1142.55-14.97 1142.55-13.21 1126.7-13.21ZM1160.08-5.27L1147.77-5.27 1147.77-7.03 1160.08-7.03 1160.08-5.27ZM1160.08-1.76L1147.77-1.76 1147.77-3.52 1160.08-3.52 1160.08-1.76ZM1160.08 1.76L1147.77 1.76 1147.77 0 1160.08 0 1160.08 1.76ZM1158.32-10.55L1158.32-40.43 1160.08-40.43 1160.08-10.55 1158.32-10.55ZM1154.8-10.55L1154.8-40.43 1156.56-40.43 1156.56-10.55 1154.8-10.55ZM1151.29-10.55L1151.29-40.43 1153.04-40.43 1153.04-10.55 1151.29-10.55ZM1147.77-10.55L1147.77-40.43 1149.53-40.43 1149.53-10.55 1147.77-10.55Z" opacity="1" transform="matrix(1,0,0,1,0,0)" fill="#0080ff" class="undefined-text-1" data-fill-palette-color="secondary" id="text-1"></path></svg></g></svg></g></svg></g></svg></g><g></g></svg></g></svg></g></svg></g><g><path d="M84.284 78.215A122.216 122.216 0 0 1 311.236 78.215L306.933 78.215A117.913 117.913 0 0 0 88.587 78.215L84.284 78.215M84.284 168.985A122.216 122.216 0 0 0 311.236 168.985L306.933 168.985A117.913 117.913 0 0 1 88.587 168.985L84.284 168.985" fill="#0080ff" stroke="transparent" data-fill-palette-color="tertiary"></path></g></svg></g><defs></defs></svg><rect width="395.52" height="247.2" fill="none" stroke="none" visibility="hidden"></rect></g></svg></g></svg>